<?xml version="1.0" encoding="UTF-8"?>
<svg version="1.1" xmlns="http://www.w3.org/2000/svg" width="512" height="512">
<path d="M0 0 C0.71468476 0.24113872 1.42936953 0.48227743 2.1657114 0.73072338 C4.52570257 1.52974372 6.88026105 2.34366971 9.23510742 3.15771484 C10.90418438 3.72594967 12.5735947 4.29320609 14.24331665 4.85954285 C18.69388063 6.37180576 23.14004453 7.89663071 27.5855217 9.4237709 C32.18552071 11.00139985 36.7896116 12.56698269 41.39355469 14.13305664 C46.84428714 15.98782822 52.29476462 17.84331994 57.74345398 19.7040863 C69.6647514 23.77509038 81.599398 27.80147167 93.55874634 31.759552 C111.82918428 37.80660896 130.04756844 44.00208082 148.24797058 50.25646973 C153.04460767 51.9017793 157.84813073 53.52435964 162.65994263 55.1247406 C165.6312878 56.11364861 168.59978735 57.11093541 171.5680542 58.10903931 C172.93500729 58.56607086 174.30334019 59.0190005 175.67315674 59.46737671 C192.46761886 64.9674513 192.46761886 64.9674513 196.90307617 72.30615234 C199.09201736 76.93660486 199.65290891 80.31925312 199.64160156 85.43017578 C199.64152603 86.57105652 199.6414505 87.71193726 199.64137268 88.88739014 C199.6362114 90.11355042 199.63105011 91.33971069 199.62573242 92.60302734 C199.62361 94.4922995 199.62361 94.4922995 199.6214447 96.41973877 C199.6167969 99.76030353 199.60781899 103.10079956 199.59674072 106.44134521 C199.58649216 109.85330615 199.58193971 113.26527419 199.5769043 116.67724609 C199.5658758 123.36606714 199.54913806 130.05485577 199.52807617 136.74365234 C201.40003662 136.95513916 201.40003662 136.95513916 203.30981445 137.17089844 C218.90486386 138.93276651 233.80784645 150.71112318 243.68823242 162.27099609 C258.33841086 181.49406259 263.04610919 202.40594546 260.24682617 226.12695312 C257.16396023 245.42551873 245.87920536 263.23549607 230.31323242 274.90380859 C221.14383089 280.96101493 208.85929941 288.74365234 197.52807617 288.74365234 C197.40561523 290.05462891 197.2831543 291.36560547 197.15698242 292.71630859 C193.72991977 323.2380266 175.65650959 351.12719203 155.07104492 372.98974609 C153.28289927 374.9262172 151.59411733 376.85232677 149.93041992 378.88818359 C148.00112793 381.18137456 146.18669798 383.08225083 143.90307617 384.99365234 C140.71337024 387.70401471 137.64375191 390.5054314 134.59057617 393.36865234 C104.61311636 420.65847782 68.09433834 440.99832494 33.36309814 461.51098633 C21.38149782 468.59107201 9.54529008 475.8748382 -2.20898438 483.32763672 C-3.3291394 484.02856445 -3.3291394 484.02856445 -4.47192383 484.74365234 C-5.69745972 485.60700195 -5.69745972 485.60700195 -6.94775391 486.48779297 C-9.47192383 487.74365234 -9.47192383 487.74365234 -12.02832031 487.57763672 C-14.47311206 486.74324681 -16.39520485 485.78809943 -18.56958008 484.39990234 C-19.74895142 483.65703979 -19.74895142 483.65703979 -20.95214844 482.89916992 C-21.80429932 482.35284912 -22.6564502 481.80652832 -23.53442383 481.24365234 C-25.43205641 480.04836309 -27.33053798 478.85442093 -29.22973633 477.66162109 C-30.24197266 477.02401855 -31.25420898 476.38641602 -32.29711914 475.72949219 C-37.8025342 472.28585592 -43.35612097 468.92178751 -48.90942383 465.55615234 C-50.09417306 464.83685929 -51.27890598 464.11753938 -52.46362305 463.39819336 C-58.64494825 459.64830109 -64.83914974 455.92092348 -71.05004883 452.22021484 C-114.45566866 426.34949296 -114.45566866 426.34949296 -132.79321289 412.04150391 C-135.38057465 410.04115267 -138.02440482 408.11806242 -140.65942383 406.18115234 C-151.49943781 398.04014049 -161.59783323 389.01975518 -171.47192383 379.74365234 C-172.12805664 379.13005859 -172.78418945 378.51646484 -173.46020508 377.88427734 C-200.97046582 351.32264629 -220.92338539 312.63487993 -221.71200252 273.98473299 C-221.76106399 269.57636738 -221.76512115 265.16860274 -221.76245117 260.76000977 C-221.76844622 258.77109528 -221.77525398 256.78218311 -221.7828064 254.79327393 C-221.80036287 249.42796261 -221.80515705 244.06271519 -221.80643797 238.69737792 C-221.8078647 235.34118161 -221.8121439 231.98500129 -221.8174324 228.62880898 C-221.83589024 216.90967408 -221.84410734 205.1905845 -221.8425293 193.47143555 C-221.84132533 182.56095006 -221.86248861 171.65066157 -221.89401662 160.74022597 C-221.92017069 151.35391983 -221.93089713 141.96767814 -221.92961848 132.58133584 C-221.92910909 126.98312541 -221.93478115 121.38509073 -221.95597458 115.78691673 C-221.9753451 110.52789821 -221.97548946 105.26922356 -221.96094131 100.01019287 C-221.95885148 98.08330597 -221.96356452 96.15639756 -221.97566223 94.2295475 C-221.99113434 91.59425388 -221.98179441 88.96014362 -221.96640015 86.32487488 C-221.97668727 85.56718266 -221.9869744 84.80949045 -221.99757326 84.02883786 C-221.90775478 77.04615597 -219.58783274 71.86857452 -214.66357422 66.92333984 C-211.29420449 64.62228171 -208.24712966 63.23339242 -204.40551758 61.86865234 C-203.71759628 61.62163574 -203.02967499 61.37461914 -202.32090759 61.12011719 C-200.04365372 60.31029782 -197.75950675 59.52379392 -195.47192383 58.74365234 C-194.68037903 58.47294922 -193.88883423 58.20224609 -193.07330322 57.92333984 C-187.85314047 56.1468372 -182.62062751 54.40894447 -177.38357544 52.68295288 C-172.40014838 51.04003023 -167.4203994 49.38603555 -162.44067383 47.73193359 C-161.42820084 47.39575516 -160.41572784 47.05957672 -159.37257385 46.71321106 C-149.74004988 43.50988644 -140.13529714 40.22787309 -130.53442383 36.93115234 C-112.25240316 30.65701775 -93.91956004 24.53986467 -75.57348633 18.45581055 C-64.74773954 14.86178693 -53.93652754 11.2347786 -43.16333008 7.48583984 C-42.20679535 7.15408752 -41.25026062 6.82233521 -40.26473999 6.48052979 C-35.81143008 4.93555992 -31.36209676 3.3807881 -26.91918945 1.80615234 C-25.35489479 1.26142625 -23.79045078 0.71712875 -22.22583008 0.17333984 C-21.1921505 -0.20022141 -21.1921505 -0.20022141 -20.1375885 -0.58132935 C-12.90199836 -3.06965424 -7.10641637 -2.49325816 0 0 Z " fill="#4FB1FB" transform="translate(236.471923828125,13.25634765625)"/>
<path d="M0 0 C0.71468476 0.24113872 1.42936953 0.48227743 2.1657114 0.73072338 C4.52570257 1.52974372 6.88026105 2.34366971 9.23510742 3.15771484 C10.90418438 3.72594967 12.5735947 4.29320609 14.24331665 4.85954285 C18.69388063 6.37180576 23.14004453 7.89663071 27.5855217 9.4237709 C32.18552071 11.00139985 36.7896116 12.56698269 41.39355469 14.13305664 C46.84428714 15.98782822 52.29476462 17.84331994 57.74345398 19.7040863 C69.6647514 23.77509038 81.599398 27.80147167 93.55874634 31.759552 C111.82918428 37.80660896 130.04756844 44.00208082 148.24797058 50.25646973 C153.04460767 51.9017793 157.84813073 53.52435964 162.65994263 55.1247406 C165.6312878 56.11364861 168.59978735 57.11093541 171.5680542 58.10903931 C172.93500729 58.56607086 174.30334019 59.0190005 175.67315674 59.46737671 C192.46761886 64.9674513 192.46761886 64.9674513 196.90307617 72.30615234 C199.09201736 76.93660486 199.65290891 80.31925312 199.64160156 85.43017578 C199.64152603 86.57105652 199.6414505 87.71193726 199.64137268 88.88739014 C199.6362114 90.11355042 199.63105011 91.33971069 199.62573242 92.60302734 C199.62361 94.4922995 199.62361 94.4922995 199.6214447 96.41973877 C199.6167969 99.76030353 199.60781899 103.10079956 199.59674072 106.44134521 C199.58649216 109.85330615 199.58193971 113.26527419 199.5769043 116.67724609 C199.5658758 123.36606714 199.54913806 130.05485577 199.52807617 136.74365234 C201.40003662 136.95513916 201.40003662 136.95513916 203.30981445 137.17089844 C218.90486386 138.93276651 233.80784645 150.71112318 243.68823242 162.27099609 C258.33841086 181.49406259 263.04610919 202.40594546 260.24682617 226.12695312 C257.16396023 245.42551873 245.87920536 263.23549607 230.31323242 274.90380859 C221.14383089 280.96101493 208.85929941 288.74365234 197.52807617 288.74365234 C197.40561523 290.05462891 197.2831543 291.36560547 197.15698242 292.71630859 C193.72991977 323.2380266 175.65650959 351.12719203 155.07104492 372.98974609 C153.28289927 374.9262172 151.59411733 376.85232677 149.93041992 378.88818359 C148.00112793 381.18137456 146.18669798 383.08225083 143.90307617 384.99365234 C140.71337024 387.70401471 137.64375191 390.5054314 134.59057617 393.36865234 C104.61311636 420.65847782 68.09433834 440.99832494 33.36309814 461.51098633 C21.38149782 468.59107201 9.54529008 475.8748382 -2.20898438 483.32763672 C-3.3291394 484.02856445 -3.3291394 484.02856445 -4.47192383 484.74365234 C-5.69745972 485.60700195 -5.69745972 485.60700195 -6.94775391 486.48779297 C-9.47192383 487.74365234 -9.47192383 487.74365234 -12.02832031 487.57763672 C-14.47311206 486.74324681 -16.39520485 485.78809943 -18.56958008 484.39990234 C-19.74895142 483.65703979 -19.74895142 483.65703979 -20.95214844 482.89916992 C-21.80429932 482.35284912 -22.6564502 481.80652832 -23.53442383 481.24365234 C-25.43205641 480.04836309 -27.33053798 478.85442093 -29.22973633 477.66162109 C-30.24197266 477.02401855 -31.25420898 476.38641602 -32.29711914 475.72949219 C-37.8025342 472.28585592 -43.35612097 468.92178751 -48.90942383 465.55615234 C-50.09417306 464.83685929 -51.27890598 464.11753938 -52.46362305 463.39819336 C-58.64494825 459.64830109 -64.83914974 455.92092348 -71.05004883 452.22021484 C-114.45566866 426.34949296 -114.45566866 426.34949296 -132.79321289 412.04150391 C-135.38057465 410.04115267 -138.02440482 408.11806242 -140.65942383 406.18115234 C-151.49943781 398.04014049 -161.59783323 389.01975518 -171.47192383 379.74365234 C-172.12805664 379.13005859 -172.78418945 378.51646484 -173.46020508 377.88427734 C-200.97046582 351.32264629 -220.92338539 312.63487993 -221.71200252 273.98473299 C-221.76106399 269.57636738 -221.76512115 265.16860274 -221.76245117 260.76000977 C-221.76844622 258.77109528 -221.77525398 256.78218311 -221.7828064 254.79327393 C-221.80036287 249.42796261 -221.80515705 244.06271519 -221.80643797 238.69737792 C-221.8078647 235.34118161 -221.8121439 231.98500129 -221.8174324 228.62880898 C-221.83589024 216.90967408 -221.84410734 205.1905845 -221.8425293 193.47143555 C-221.84132533 182.56095006 -221.86248861 171.65066157 -221.89401662 160.74022597 C-221.92017069 151.35391983 -221.93089713 141.96767814 -221.92961848 132.58133584 C-221.92910909 126.98312541 -221.93478115 121.38509073 -221.95597458 115.78691673 C-221.9753451 110.52789821 -221.97548946 105.26922356 -221.96094131 100.01019287 C-221.95885148 98.08330597 -221.96356452 96.15639756 -221.97566223 94.2295475 C-221.99113434 91.59425388 -221.98179441 88.96014362 -221.96640015 86.32487488 C-221.97668727 85.56718266 -221.9869744 84.80949045 -221.99757326 84.02883786 C-221.90775478 77.04615597 -219.58783274 71.86857452 -214.66357422 66.92333984 C-211.29420449 64.62228171 -208.24712966 63.23339242 -204.40551758 61.86865234 C-203.71759628 61.62163574 -203.02967499 61.37461914 -202.32090759 61.12011719 C-200.04365372 60.31029782 -197.75950675 59.52379392 -195.47192383 58.74365234 C-194.68037903 58.47294922 -193.88883423 58.20224609 -193.07330322 57.92333984 C-187.85314047 56.1468372 -182.62062751 54.40894447 -177.38357544 52.68295288 C-172.40014838 51.04003023 -167.4203994 49.38603555 -162.44067383 47.73193359 C-161.42820084 47.39575516 -160.41572784 47.05957672 -159.37257385 46.71321106 C-149.74004988 43.50988644 -140.13529714 40.22787309 -130.53442383 36.93115234 C-112.25240316 30.65701775 -93.91956004 24.53986467 -75.57348633 18.45581055 C-64.74773954 14.86178693 -53.93652754 11.2347786 -43.16333008 7.48583984 C-42.20679535 7.15408752 -41.25026062 6.82233521 -40.26473999 6.48052979 C-35.81143008 4.93555992 -31.36209676 3.3807881 -26.91918945 1.80615234 C-25.35489479 1.26142625 -23.79045078 0.71712875 -22.22583008 0.17333984 C-21.1921505 -0.20022141 -21.1921505 -0.20022141 -20.1375885 -0.58132935 C-12.90199836 -3.06965424 -7.10641637 -2.49325816 0 0 Z M-27.49536133 35.84521484 C-28.78457089 36.27836134 -30.07408846 36.71059202 -31.3638916 37.14196777 C-34.81320653 38.29853077 -38.25799646 39.46805031 -41.70204926 40.64017487 C-45.30653939 41.86439092 -48.9151192 43.07643633 -52.52319336 44.29003906 C-60.84485389 47.09201649 -69.15950146 49.91440129 -77.47192383 52.74365234 C-79.04997803 53.28070801 -79.04997803 53.28070801 -80.65991211 53.82861328 C-88.11692991 56.36798216 -95.57139858 58.91472841 -103.02148438 61.47436523 C-113.04699634 64.91498725 -123.09129664 68.29673358 -133.14770508 71.64599609 C-133.78737213 71.85904892 -134.42703918 72.07210175 -135.08609009 72.29161072 C-142.07697218 74.61950556 -149.06948222 76.94245395 -156.06323242 79.26171875 C-157.24491501 79.65420303 -158.4265976 80.04668732 -159.64408875 80.45106506 C-161.84286343 81.18130588 -164.0420545 81.91029486 -166.24177551 82.63768005 C-171.80437725 84.48588726 -177.33927908 86.39745197 -182.85762024 88.37425232 C-183.49751215 88.6033012 -184.13740407 88.83235007 -184.79668665 89.06833982 C-186.35526721 89.62630781 -187.91361962 90.18491302 -189.47192383 90.74365234 C-189.54220451 114.68414553 -189.595005 138.6246231 -189.62736034 162.5651989 C-189.64278708 173.68282407 -189.66379584 184.8003849 -189.69824219 195.91796875 C-189.72827355 205.61528956 -189.74752925 215.31256375 -189.75418931 225.00992978 C-189.75807843 230.13803518 -189.76712961 235.26600727 -189.789114 240.39406967 C-189.8096969 245.23511058 -189.81571428 250.07596508 -189.81124687 254.91704559 C-189.81206244 256.68008314 -189.81789676 258.44312788 -189.82954025 260.20612717 C-190.0762957 299.54674312 -174.4960682 329.81080137 -147.47192383 357.74365234 C-146.83770508 358.41783203 -146.20348633 359.09201172 -145.55004883 359.78662109 C-140.60667189 364.9300871 -135.0313699 369.29052908 -129.47192383 373.74365234 C-128.35770346 374.65917727 -127.24445552 375.57588669 -126.13208008 376.49365234 C-97.22705092 400.19114378 -64.56563237 419.21270105 -32.34204102 437.984375 C-31.76371521 438.32149506 -31.1853894 438.65861511 -30.58953857 439.00595093 C-28.92068374 439.9767365 -27.24907173 440.94277739 -25.57739258 441.90869141 C-23.55735292 443.10229345 -21.55805963 444.3319756 -19.58520508 445.60205078 C-18.71250977 446.16182617 -17.83981445 446.72160156 -16.94067383 447.29833984 C-16.19237305 447.79575684 -15.44407227 448.29317383 -14.6730957 448.80566406 C-11.76875265 450.04329561 -10.45128835 449.73186442 -7.47192383 448.74365234 C-4.73178427 447.35612987 -4.73178427 447.35612987 -1.91333008 445.56005859 C-0.82012451 444.88869873 0.27308105 444.21733887 1.39941406 443.52563477 C2.58815643 442.78584211 3.77687652 442.04601364 4.96557617 441.30615234 C6.84434677 440.1482276 8.72476637 438.99301293 10.60527039 437.83790588 C11.91350174 437.03409885 13.22120251 436.2294277 14.52839661 435.42393494 C21.04147439 431.41403605 27.60624522 427.49264709 34.17492676 423.57476807 C65.752956 404.72312931 96.7120901 385.12401721 123.52807617 359.74365234 C124.4690918 358.85677734 125.41010742 357.96990234 126.37963867 357.05615234 C142.54908163 341.38773438 155.59922509 321.76716545 162.46557617 300.24365234 C162.67722412 299.58518311 162.88887207 298.92671387 163.10693359 298.24829102 C164.28791643 294.31318985 164.7368655 290.84351543 164.52807617 286.74365234 C163.65666992 286.46392578 162.78526367 286.18419922 161.88745117 285.89599609 C141.7949992 279.13327687 125.62539249 266.75843975 115.13354492 248.07958984 C112.29213076 242.17553219 110.35666251 236.03036239 108.52807617 229.74365234 C108.25761475 228.82700806 108.25761475 228.82700806 107.98168945 227.8918457 C103.64044191 207.33283758 108.60362231 186.28064168 119.69799805 168.91210938 C131.61945166 151.28930376 147.55352815 142.88966712 167.52807617 136.74365234 C167.52807617 121.56365234 167.52807617 106.38365234 167.52807617 90.74365234 C155.57010183 86.7009208 143.61188041 82.65892736 131.65307617 78.61865234 C130.76844193 78.31976608 129.88380768 78.02087982 128.97236633 77.7129364 C107.62026497 70.49912415 86.26528389 63.29571653 64.87490845 56.1960144 C49.50293555 51.0920398 34.17229533 45.86978259 18.85195923 40.61300659 C16.53745165 39.82017651 14.22156004 39.0314971 11.90551758 38.24316406 C9.02003483 37.25986272 6.14357782 36.25481456 3.27172852 35.23242188 C1.94444499 34.76863825 0.61713521 34.30492975 -0.71020508 33.84130859 C-1.85142822 33.43533447 -2.99265137 33.02936035 -4.16845703 32.61108398 C-12.69631092 30.37182119 -19.42065659 33.08044926 -27.49536133 35.84521484 Z " fill="#FBDA35" transform="translate(236.471923828125,13.25634765625)"/>
<path d="M0 0 C35.26401157 -0.6241418 67.70480068 10.71085579 93.43310547 34.98193359 C105.20232865 46.43486483 115.69432886 61.9769054 120 78 C119.9765625 80.515625 119.9765625 80.515625 119.625 83.25 C118.064217 100.24302493 117.07559898 117.09209977 124 133 C124.46921875 134.09441406 124.9384375 135.18882812 125.421875 136.31640625 C134.35080065 155.4943944 150.02457779 168.31784321 169.44140625 176.08984375 C171.6232744 176.86598922 173.75279058 177.45884502 176 178 C175.58136988 184.77508154 174.47043618 190.71817629 172.0625 197.0625 C171.60496338 198.28078491 171.60496338 198.28078491 171.13818359 199.52368164 C163.86247262 218.08773566 151.70234493 233.72712024 138 248 C137.08992187 248.95132813 136.17984375 249.90265625 135.2421875 250.8828125 C129.17806898 257.08514455 122.81325824 262.6421885 116 268 C115.0608374 268.74233887 114.1216748 269.48467773 113.15405273 270.24951172 C104.83007675 276.74761355 96.23938365 282.73237936 87.4375 288.5625 C86.72312775 289.03732819 86.00875549 289.51215637 85.2727356 290.00137329 C71.7023685 299.01117794 57.90549294 307.57047969 43.89349365 315.87713623 C41.86378701 317.08077589 39.83534784 318.28653103 37.80712891 319.49267578 C26.20564475 326.39085336 26.20564475 326.39085336 20.65600586 329.6706543 C19.36961073 330.43144714 18.08323318 331.1922697 16.796875 331.953125 C16.19001358 332.31154984 15.58315216 332.66997467 14.957901 333.03926086 C11.66950986 334.98754885 8.4214475 336.98518233 5.203125 339.046875 C2 341 2 341 0 341 C-0.09268792 332.20305508 -0.16375846 323.40627829 -0.20724869 314.60895157 C-0.22812211 310.5239563 -0.25643463 306.43929515 -0.30175781 302.35449219 C-0.3452253 298.41225655 -0.36913895 294.47034223 -0.37950897 290.52788544 C-0.38689882 289.02395316 -0.40132967 287.52003843 -0.42292023 286.01624298 C-0.45196812 283.90920541 -0.45595571 281.80349471 -0.45410156 279.69628906 C-0.46298401 278.49715881 -0.47186646 277.29802856 -0.48101807 276.06256104 C0.09600701 272.38873951 1.13454874 271.27996444 4 269 C5.76074219 267.80249023 5.76074219 267.80249023 7.546875 266.80859375 C8.55512329 266.2360083 8.55512329 266.2360083 9.58374023 265.65185547 C10.29860596 265.25111816 11.01347168 264.85038086 11.75 264.4375 C24.20375491 257.27843917 35.99568874 249.24632605 47 240 C48.08715373 239.11057214 49.1743997 238.22125701 50.26171875 237.33203125 C79.83852976 212.87198797 104.1010399 177.03021515 108 138 C108.22906916 131.33486836 108.11857359 124.66647064 108 118 C106.72125 117.938125 105.4425 117.87625 104.125 117.8125 C103.40570313 117.77769531 102.68640625 117.74289063 101.9453125 117.70703125 C101.30335938 117.80371094 100.66140625 117.90039062 100 118 C98.01745259 120.97382112 97.71170648 121.87065574 97.4375 125.24609375 C97.3278894 126.49241577 97.3278894 126.49241577 97.21606445 127.76391602 C97.10911255 129.08734009 97.10911255 129.08734009 97 130.4375 C96.82906466 132.26843984 96.65589919 134.09917289 96.48046875 135.9296875 C96.39716309 136.81108398 96.31385742 137.69248047 96.22802734 138.60058594 C94.00445243 161.99811726 82.9719012 185.03371856 68 203 C67.52240234 203.57621094 67.04480469 204.15242187 66.55273438 204.74609375 C57.77816764 215.29341285 48.77156847 224.4502433 38 233 C36.54980469 234.175625 36.54980469 234.175625 35.0703125 235.375 C28.64000628 240.47997593 21.98669599 245.08602433 15.0625 249.5 C14.25748047 250.01667236 13.45246094 250.53334473 12.62304688 251.06567383 C8.51003542 253.64403721 4.73368632 255.72350032 0 257 C-0.88407949 251.35498871 -1.75524289 245.54862495 0 240 C3.33461547 235.78360539 8.42180154 233.48917928 13.10253906 231.04248047 C17.48981232 228.63207686 21.21372574 225.24273081 25 222 C25.90363281 221.23042969 26.80726563 220.46085938 27.73828125 219.66796875 C34.24344784 213.954579 39.72594076 207.85249633 45 201 C45.73992187 200.07574219 46.47984375 199.15148437 47.2421875 198.19921875 C67.71964944 172.0178271 80.41012863 138.70524817 76.375 105.3125 C72.94799128 86.30817893 62.22342383 70.1598705 46.8984375 58.67578125 C32.17479092 49.08531667 17.24511268 45.90498338 0 44 C0 39.71 0 35.42 0 31 C2.05078125 30.51171875 4.1015625 30.0234375 6.15234375 29.53515625 C7.99969898 29.16112431 7.99969898 29.16112431 9 28 C9.33338596 24.54187831 9.33338596 24.54187831 9 21 C5.74922159 18.5364399 5.74922159 18.5364399 0 18 C0 12.06 0 6.12 0 0 Z " fill="#2B93F9" transform="translate(225,122)"/>
<path d="M0 0 C15.96022175 12.8261188 28.68192596 30.01550645 31.3671875 50.90234375 C33.25004111 74.07751126 29.21942549 95.73193662 13.9921875 113.90234375 C2.0276908 127.49230659 -15.00587443 138.33313325 -33.32397461 140.29833984 C-37.20722819 140.47261561 -41.05848299 140.50847828 -44.9453125 140.46484375 C-45.96437683 140.45895233 -45.96437683 140.45895233 -47.00402832 140.45294189 C-57.65680533 140.36614799 -66.906776 139.45954951 -76.6328125 134.90234375 C-77.64730469 134.433125 -78.66179687 133.96390625 -79.70703125 133.48046875 C-98.74059884 123.82086828 -112.2696397 107.95035974 -119.625 88.0703125 C-125.90387138 68.33324007 -124.45945364 46.26702187 -115.02050781 27.85449219 C-104.63989771 8.67675488 -88.3766137 -4.92358673 -67.5703125 -11.53515625 C-45.0614415 -17.9952312 -18.84567591 -14.11880966 0 0 Z " fill="#42EF43" transform="translate(465.6328125,162.09765625)"/>
<path d="M0 0 C7.87533595 1.12504799 7.87533595 1.12504799 11.82568359 2.4519043 C12.71555969 2.7475679 13.60543579 3.04323151 14.52227783 3.34785461 C15.94597687 3.83115486 15.94597687 3.83115486 17.3984375 4.32421875 C18.91301544 4.83054085 18.91301544 4.83054085 20.45819092 5.34709167 C23.76581109 6.45464863 27.07040707 7.57094644 30.375 8.6875 C32.69761274 9.46738017 35.02036838 10.24683489 37.34326172 11.02587891 C51.75573346 15.86589647 66.14823658 20.76416622 80.52819824 25.69985962 C98.90982393 32.00830696 117.35105662 38.13725675 135.79736328 44.25341797 C150.24245623 49.04809741 164.63588196 53.96739999 179 59 C179 74.18 179 89.36 179 105 C174.05 106.65 169.1 108.3 164 110 C150.5994855 116.3209974 139.84313309 124.28367781 131.5859375 136.6875 C130.18500436 138.73023994 128.76885674 140.28848159 127 142 C126.74943848 141.49251221 126.49887695 140.98502441 126.24072266 140.4621582 C109.44031094 106.73561739 83.73645512 84.23748358 48 72 C32.39819383 67.18179515 16.18766383 65.61876638 0 64 C0 42.88 0 21.76 0 0 Z " fill="#2A92F9" transform="translate(225,45)"/>
<path d="M0 0 C6.44263428 5.33091153 11.6839061 11.39337707 14.6875 19.25 C14.9865625 20.02988281 15.285625 20.80976563 15.59375 21.61328125 C21.97922581 42.04089135 17.59451739 65.02216494 7.90332031 83.60839844 C1.34831063 95.57657741 -6.87113451 105.48858822 -16.3125 115.25 C-16.91578125 115.90484375 -17.5190625 116.5596875 -18.140625 117.234375 C-23.86217733 123.30268808 -30.67463861 128.23799005 -37.3125 133.25 C-38.13814453 133.87479248 -38.13814453 133.87479248 -38.98046875 134.51220703 C-88.23720074 171.46966423 -88.23720074 171.46966423 -105.3125 170.25 C-107.3125 167.25 -107.3125 167.25 -107.9375 164.375 C-107.3125 161.25 -107.3125 161.25 -105.89916992 160.06420898 C-104.94941284 159.50455444 -104.94941284 159.50455444 -103.98046875 158.93359375 C-102.88798828 158.28777344 -102.88798828 158.28777344 -101.7734375 157.62890625 C-97.21960741 155.07731574 -92.61234599 152.63120301 -88 150.1875 C-64.07638792 137.33588234 -41.53397632 122.56818815 -22.3125 103.25 C-21.45140625 102.38890625 -20.5903125 101.5278125 -19.703125 100.640625 C-3.98620649 84.05656616 5.45962124 62.86914131 4.91015625 39.86328125 C4.37211232 31.13186656 3.10484248 23.84230738 -1.3125 16.25 C-1.745625 15.21359375 -1.745625 15.21359375 -2.1875 14.15625 C-3.5996782 11.76339249 -4.7678857 11.2937075 -7.3125 10.25 C-8.01246094 9.89679688 -8.71242188 9.54359375 -9.43359375 9.1796875 C-17.01077828 5.72970466 -24.72981753 4.72589343 -32.859375 6.9453125 C-56.602883 16.6883382 -65.57573412 45.26431761 -74.75 67.0625 C-101.69435289 131.07791137 -101.69435289 131.07791137 -126.3125 143.25 C-131.60852888 143.67238267 -131.60852888 143.67238267 -134.1875 142.125 C-135.8719487 139.3175855 -135.73537476 137.4734227 -135.3125 134.25 C-132.96875 131.9765625 -132.96875 131.9765625 -129.8125 129.875 C-121.75740463 124.22581891 -115.81550367 118.31478666 -110.3125 110.1875 C-109.93335449 109.6291748 -109.55420898 109.07084961 -109.16357422 108.49560547 C-101.72124425 97.10568629 -96.05010467 84.81938718 -90.81280518 72.30215454 C-89.52383997 69.22386404 -88.21713222 66.1532043 -86.91149902 63.08195496 C-85.95374935 60.82866982 -84.99804659 58.57452432 -84.04248047 56.3203125 C-62.72458564 6.10308203 -62.72458564 6.10308203 -37.453125 -4.98828125 C-25.17849232 -9.35607938 -10.63041497 -7.46781551 0 0 Z " fill="#EFF1FE" transform="translate(257.3125,201.75)"/>
<path d="M0 0 C1.52379272 0.02018188 1.52379272 0.02018188 3.07836914 0.04077148 C25.85621912 0.4958533 43.16639449 8.90381384 59.05078125 25.33203125 C73.24609351 41.76757488 77.87219068 61.71248291 76.81152344 82.94335938 C74.49856229 112.32159881 58.57073544 141.8276047 38.69140625 163.08984375 C36.8338233 165.08788666 35.10678749 167.14377197 33.375 169.25 C24.40789905 179.47167242 13.03541849 187.10025435 1.625 194.3125 C0.72007812 194.89257812 -0.18484375 195.47265625 -1.1171875 196.0703125 C-4.07709594 197.69877424 -6.04789392 197.74647036 -9.375 197.3125 C-12.05064769 195.70711139 -12.31930146 194.52136953 -13.125 191.5 C-12.2498437 187.78058574 -11.75070112 187.5233989 -8.6875 185.5 C-6.91984765 184.43221626 -5.14864884 183.37029334 -3.375 182.3125 C21.66356492 165.87792071 41.52875373 144.99629108 53.625 117.3125 C53.94339844 116.58385742 54.26179688 115.85521484 54.58984375 115.10449219 C63.16888323 95.09534688 68.05790892 72.98753212 60.18359375 51.9453125 C53.39183371 36.11489435 42.81121827 24.09195211 26.671875 17.375 C10.50390044 11.73693708 -4.68072688 10.13811143 -20.80078125 16.99609375 C-35.18410565 24.35145084 -45.89916723 37.01186032 -51.046875 52.30908203 C-51.93569354 55.34712987 -52.69953267 58.39561538 -53.390625 61.484375 C-54.50757039 64.69337683 -55.40592289 65.72635804 -58.375 67.3125 C-61.74536311 67.07175978 -62.96298021 66.72451979 -65.375 64.3125 C-66.9565223 50.7565946 -59.19484967 36.22373542 -51.09960938 25.64599609 C-38.17046341 9.80637254 -20.67949372 -0.38451823 0 0 Z " fill="#EFF1FE" transform="translate(226.375,166.6875)"/>
<path d="M0 0 C0.74933807 0.00054382 1.49867615 0.00108765 2.27072144 0.00164795 C39.02436742 0.12401489 73.26732673 13.64210121 99.625 39.375 C100.34042969 40.02855469 101.05585938 40.68210938 101.79296875 41.35546875 C111.34286757 50.295394 120.35158653 62.90959175 124.625 75.375 C124.3785076 79.89402742 122.85119584 83.62224036 121.0625 87.75 C120.60746094 88.80960937 120.15242187 89.86921875 119.68359375 90.9609375 C119.33425781 91.75757813 118.98492187 92.55421875 118.625 93.375 C116.49537985 90.18056978 115.39480868 87.22337217 114.0625 83.625 C108.67890647 69.80817644 101.00595859 58.8674106 90.625 48.375 C90.03203125 47.72144531 89.4390625 47.06789062 88.828125 46.39453125 C70.56994104 26.64496098 39.95760226 15.19473268 13.625 13.375 C9.20733055 13.2176837 4.79518605 13.18996938 0.375 13.1875 C-1.33236328 13.16913086 -1.33236328 13.16913086 -3.07421875 13.15039062 C-35.28062433 13.09555566 -65.07834851 26.34792638 -87.84082031 48.82226562 C-103.35571197 64.63236663 -114.62283773 85.32886171 -121.55078125 106.30078125 C-122.375 108.375 -122.375 108.375 -124.375 110.375 C-127.875 110.6875 -127.875 110.6875 -131.375 110.375 C-133.67406147 106.9264078 -133.60229064 105.21348063 -133.02734375 101.1953125 C-125.65332032 69.31480402 -101.043946 38.45733958 -73.85986328 21.04760742 C-59.13108898 11.92703698 -44.28644038 6.08658675 -27.375 2.375 C-26.56804687 2.18808594 -25.76109375 2.00117187 -24.9296875 1.80859375 C-16.6524974 0.0712525 -8.41717606 -0.02297397 0 0 Z " fill="#EEF1FE" transform="translate(227.375,109.625)"/>
<path d="M0 0 C17.9369547 -0.7321206 32.690982 4.08150326 46.58203125 15.67578125 C54.05397228 22.85801859 59.40250696 31.32203832 63 41 C63.31839844 41.80179688 63.63679688 42.60359375 63.96484375 43.4296875 C71.38664193 65.38726554 63.36786116 90.23474435 53.94433594 110.24121094 C42.95710068 132.24645802 24.63875805 155.68758757 3 168 C2.01 168 1.02 168 0 168 C-1.92377126 153.97455653 -1.92377126 153.97455653 1.11474609 149.27636719 C4.12412374 146.10957595 7.70294492 143.68255523 11.29443359 141.22216797 C27.6763911 129.48325023 39.88504367 108.83128597 46 90 C46.3196875 89.04480469 46.639375 88.08960938 46.96875 87.10546875 C51.47050125 71.20344928 51.02851073 51.33187757 43.71484375 36.37109375 C37.69445938 26.46009887 29.15092462 20.52341896 18.10180664 17.4765625 C14.69642889 16.70442899 11.22682508 16.62508586 7.75 16.4375 C5.1925 16.293125 2.635 16.14875 0 16 C0 10.72 0 5.44 0 0 Z " fill="#2D93FA" transform="translate(225,179)"/>
<path d="M0 0 C2 2 2 2 2.3125 4.9375 C1.95817345 8.40990018 1.58679661 8.86506487 -1 11 C-2.78662109 11.93212891 -2.78662109 11.93212891 -4.7734375 12.7265625 C-5.50973389 13.03142578 -6.24603027 13.33628906 -7.00463867 13.65039062 C-7.78685791 13.97201172 -8.56907715 14.29363281 -9.375 14.625 C-26.95895287 22.17130686 -38.55527922 32.08552678 -46 50 C-48.23811594 56.88185013 -48.29487044 63.46802149 -48.30496025 70.67142296 C-48.3086699 72.80552808 -48.3255218 74.93918711 -48.34571838 77.07319641 C-48.40067693 83.13554504 -48.43165106 89.19795831 -48.45629883 95.26049805 C-48.47234397 98.9851904 -48.50273623 102.70956553 -48.54106331 106.43409157 C-48.55256638 107.83839312 -48.55864235 109.24275179 -48.55874443 110.64710045 C-48.56092069 132.62469562 -55.00934831 152.32184831 -70.6875 168 C-79.6217876 176.8312393 -79.6217876 176.8312393 -84.0625 177.375 C-87 177 -87 177 -88.875 175.875 C-90.56847393 173.05254344 -90.42235753 171.24860045 -90 168 C-88.17373675 165.94582869 -86.54624314 164.3889042 -84.4375 162.6875 C-83.32623651 161.72914324 -82.21945563 160.76556442 -81.1171875 159.796875 C-80.31039551 159.08821289 -80.31039551 159.08821289 -79.48730469 158.36523438 C-69.14041254 148.86756187 -63.30656005 134.82111968 -62 121 C-61.81329829 116.3578404 -61.76756775 111.71571243 -61.71875 107.0703125 C-61.70067247 105.71181552 -61.68206779 104.35332546 -61.66296387 102.99484253 C-61.60363699 98.7049524 -61.5513318 94.41499225 -61.5 90.125 C-61.44043036 85.15546891 -61.37787521 80.18600937 -61.30812073 75.21660995 C-61.28187221 73.24211739 -61.26092784 71.26755658 -61.2401123 69.29299927 C-60.97978088 50.32565906 -56.90130398 34.84314458 -43.875 20.69140625 C-35.39186912 12.69168908 -25.06417971 7.28689623 -14.5625 2.4375 C-13.80525635 2.07849609 -13.0480127 1.71949219 -12.26782227 1.34960938 C-7.81909716 -0.62782106 -4.83922653 -1.56928161 0 0 Z " fill="#EFF1FE" transform="translate(198,147)"/>
<path d="M0 0 C3 0.4375 3 0.4375 4.6640625 1.44921875 C6.79391448 4.61908616 6.44130207 7.99987843 6.375 11.6875 C6.36557373 12.4923584 6.35614746 13.2972168 6.34643555 14.12646484 C5.55930802 45.91889077 -10.49357764 78.24758318 -31.9296875 101.21484375 C-33.79625956 103.21876734 -35.55616074 105.27502915 -37.3125 107.375 C-53.59903968 125.92458961 -88.77938868 156.82331043 -114.1875 159.8125 C-117 159.4375 -117 159.4375 -118.875 158.25 C-120.48241237 155.66028007 -120.64260608 154.43632835 -120 151.4375 C-115.58635934 147.22385243 -110.87713598 144.6765205 -105.4375 142 C-63.19746376 120.45115954 -28.1540554 87.29264829 -11.5625 42.3125 C-8.13366447 31.00704699 -6.77445107 18.77099874 -6.40625 7.00390625 C-5.72447175 2.69690327 -4.36496129 0.63655685 0 0 Z " fill="#EEF0FE" transform="translate(328,238.5625)"/>
<path d="M0 0 C5.53846154 3.07692308 5.53846154 3.07692308 7 6 C7.54602174 11.67862611 6.50128733 14.69323244 3 19 C-0.24470718 22.53730999 -3.62711837 25.93346138 -7.0234375 29.32421875 C-8.01247599 30.31715036 -9.00129266 31.31030297 -9.98989868 32.30366516 C-12.05596177 34.37716114 -14.12581934 36.44677729 -16.19824219 38.51391602 C-18.84507001 41.1549414 -21.48033599 43.80717925 -24.1126461 46.4626646 C-26.14923678 48.51402737 -28.1927555 50.55837851 -30.23830032 52.6008091 C-31.21260492 53.57562477 -32.18456887 54.55278603 -33.15406418 55.53238487 C-34.51264012 56.90337978 -35.88186798 58.26379399 -37.25146484 59.6237793 C-38.02549652 60.3984404 -38.7995282 61.1731015 -39.59701538 61.97123718 C-43.09684425 64.92603041 -46.45414624 66.77456299 -51 67.4375 C-54.81370097 66.88133527 -57.22980232 65.60036605 -60 63 C-62.44026202 59.61087089 -64.46355349 56.01738532 -66.5 52.375 C-67.59346456 50.46598231 -68.68721307 48.55712723 -69.78125 46.6484375 C-70.31113525 45.71056396 -70.84102051 44.77269043 -71.38696289 43.80639648 C-73.44689903 40.2224755 -75.61748145 36.71142696 -77.81225586 33.20874023 C-79.72889489 29.64454017 -80.06868617 27.05248381 -80 23 C-78.42569236 19.37909244 -77.31117074 18.20744716 -74 16 C-68.90757374 15.52847905 -66.04893985 15.87653211 -62 19 C-60.02949213 21.6594476 -58.42437213 24.48777368 -56.8125 27.375 C-56.15604492 28.50808594 -56.15604492 28.50808594 -55.48632812 29.6640625 C-53.3715313 33.35769237 -51.43414234 36.97799189 -50 41 C-44.63611795 36.41617507 -39.53326718 31.66163749 -34.578125 26.640625 C-33.91085388 25.96956726 -33.24358276 25.29850952 -32.55609131 24.6071167 C-30.45158111 22.4905226 -28.35038467 20.37068758 -26.25 18.25 C-23.4664444 15.4398075 -20.6795599 12.6329778 -17.890625 9.828125 C-17.25827942 9.18748108 -16.62593384 8.54683716 -15.97442627 7.88677979 C-7.25987391 -0.87619168 -7.25987391 -0.87619168 0 0 Z " fill="#019B15" transform="translate(456,192)"/>
<path d="M0 0 C7.79406049 0.12932622 13.88267701 1.73205225 19.875 6.8125 C20.57625 7.658125 21.2775 8.50375 22 9.375 C22.70125 10.138125 23.4025 10.90125 24.125 11.6875 C31.62317887 22.43488971 31.0836875 37.4271216 29.57421875 49.890625 C25.72749768 70.56380079 14.34695414 86.517241 0 101.375 C-0.64710938 102.06207031 -1.29421875 102.74914062 -1.9609375 103.45703125 C-3.2600565 104.81001616 -4.62172373 106.10274498 -6 107.375 C-6.66 107.375 -7.32 107.375 -8 107.375 C-8.13510253 104.45678537 -8.2341305 101.54482348 -8.3125 98.625 C-8.35439453 97.8 -8.39628906 96.975 -8.43945312 96.125 C-8.486718 93.78066224 -8.45857795 91.67578168 -8 89.375 C-5.7265625 87.19140625 -5.7265625 87.19140625 -3 85.375 C6.3742169 71.84650586 16.57368886 51.15411442 14 34.375 C12.17528109 32.15603864 12.17528109 32.15603864 9.5625 32 C6.93216159 32.12181057 6.93216159 32.12181057 5.421875 33.9765625 C3.62017291 37.01569735 3.23767143 39.6368383 2.6875 43.125 C1.6495152 49.01571035 0.09607038 54.52262362 -2 60.125 C-2.24919189 60.80401367 -2.49838379 61.48302734 -2.75512695 62.18261719 C-4.07072852 65.58567441 -5.33094317 67.91538999 -8 70.375 C-9.97123015 33.61913927 -9.97123015 33.61913927 -0.08984375 22.328125 C2.40465609 19.4472903 2.40465609 19.4472903 1.80859375 15.484375 C1.54175781 14.45828125 1.27492187 13.4321875 1 12.375 C-3.53140653 11.44119039 -3.53140653 11.44119039 -8 12.375 C-8.05395478 10.75036158 -8.09277195 9.12521459 -8.125 7.5 C-8.14820313 6.59507812 -8.17140625 5.69015625 -8.1953125 4.7578125 C-7.7740479 -0.38161566 -4.30954045 0.05082005 0 0 Z " fill="#2D93FA" transform="translate(233,206.625)"/>
<path d="M0 0 C25.76985599 -0.87082117 46.25064931 4.5903913 65.62109375 22.56640625 C81.09119556 38.39214258 87.68561159 58.38497409 87.46850586 80.08544922 C86.79391872 102.43665239 77.604348 120.94957497 61.6015625 136.30078125 C45.88786745 149.74356024 28.35346088 154.82236206 8 154 C8 153.67 8 153.34 8 153 C8.7528125 152.87625 9.505625 152.7525 10.28125 152.625 C24.44208538 149.87532323 36.89536445 143.15711094 48 134 C48.94552734 133.22462891 48.94552734 133.22462891 49.91015625 132.43359375 C61.95540756 121.48585965 70.671428 103.06678328 72.30371094 87.01293945 C72.43641409 83.91861127 72.4684027 80.84697771 72.4375 77.75 C72.4228772 76.10257813 72.4228772 76.10257813 72.40795898 74.421875 C71.94710486 53.22570974 63.14998143 35.54491305 48 21 C47.41863281 20.41089844 46.83726562 19.82179687 46.23828125 19.21484375 C33.57732342 7.25550071 16.8118765 2.91559612 0 1 C0 0.67 0 0.34 0 0 Z " fill="#2DD62D" transform="translate(410,148)"/>
<path d="M0 0 C2.75 1.125 2.75 1.125 4.75 4.125 C4.58992907 9.91539188 2.5086224 13.57580197 -0.8125 18.125 C-12.19471202 34.53467651 -19.92878905 52.8965067 -27.37890625 71.359375 C-38.97608178 100.05320901 -58.08878543 126.80989363 -85.48828125 142.3984375 C-88.22070282 143.5253342 -90.33984791 143.49650878 -93.25 143.125 C-95.1875 141.4375 -95.1875 141.4375 -96.25 139.125 C-96.25 136.625 -96.25 136.625 -95.25 134.125 C-92.01081883 131.33806053 -88.55312364 128.8969202 -85.0625 126.4375 C-79.42849023 122.3579613 -74.31059691 117.88894123 -69.25 113.125 C-68.64671875 112.58617187 -68.0434375 112.04734375 -67.421875 111.4921875 C-52.71073617 97.81220326 -44.04750423 78.48251485 -36.6739502 60.23547363 C-12.49244622 0.4804787 -12.49244622 0.4804787 0 0 Z " fill="#EFF1FE" transform="translate(231.25,216.875)"/>
<path d="M0 0 C2.0542329 0.62379444 4.06325665 1.31994405 6.07788086 2.06176758 C6.81337158 2.32876465 7.5488623 2.59576172 8.30664062 2.87084961 C20.03089024 7.27672171 30.78063107 13.07618246 40.07788086 21.56176758 C40.55322266 21.99473145 41.02856445 22.42769531 41.51831055 22.8737793 C56.53748383 36.73058239 70.56366388 56.72023207 73.07788086 77.56176758 C73.13516047 80.26345575 72.87788611 81.93317889 72.07788086 84.56176758 C69.07788086 86.56176758 69.07788086 86.56176758 66.57788086 86.43676758 C63.42956131 85.33485574 62.82264797 84.38838237 61.07788086 81.56176758 C60.27520159 79.1452208 59.56139995 76.76319242 58.89038086 74.31176758 C54.34463367 58.91333718 46.93508284 45.57202656 35.07788086 34.56176758 C34.38307617 33.88500977 33.68827148 33.20825195 32.97241211 32.51098633 C21.42750472 21.59012799 8.00382672 15.72892921 -7.11743164 11.33520508 C-9.27161679 10.41198287 -10.44494134 9.3722111 -11.92211914 7.56176758 C-12.34529237 4.7406127 -12.30930348 3.2222585 -10.85961914 0.74926758 C-7.51399968 -1.30127338 -3.75330806 -0.85573326 0 0 Z " fill="#EEF1FE" transform="translate(257.922119140625,144.438232421875)"/>
<path d="M0 0 C1.37157538 1.63533988 2.69200496 3.31337481 4 5 C4.54011719 5.68964844 5.08023438 6.37929688 5.63671875 7.08984375 C6.46623047 8.22099609 6.46623047 8.22099609 7.3125 9.375 C7.84488281 10.08398438 8.37726563 10.79296875 8.92578125 11.5234375 C12.25732949 19.20417053 6.03826001 32.66653397 3.12744141 40.28320312 C-5.32288063 61.06606412 -19.63858776 90.53635937 -40 102 C-43.35919103 101.74353482 -44.5931774 101.4068226 -47 99 C-47.48828125 95.75 -47.48828125 95.75 -47 92 C-45.10440557 89.68550632 -43.40896396 87.93835444 -41.1875 86 C-17.44177113 63.73919151 -4.50097 31.80290645 0 0 Z " fill="#EEF0FE" transform="translate(350,260)"/>
<path d="M0 0 C2.95023149 0.52952873 3.66919496 1.0444946 5.4375 3.4375 C8.2059264 22.59935334 1.1193919 47.60915037 -9.5625 63.4375 C-11.046875 65.23046875 -11.046875 65.23046875 -12.5625 66.4375 C-15.625 66.3125 -15.625 66.3125 -18.5625 65.4375 C-20.69924191 62.23238713 -20.81789808 61.17392912 -20.16796875 57.49609375 C-19.4701638 55.12355691 -18.46632808 53.12504156 -17.3125 50.9375 C-10.16769636 37.33130873 -7.4482284 22.96019842 -7.1015625 7.72265625 C-6.35943486 3.19997986 -4.61686474 0.7882452 0 0 Z " fill="#EEF1FE" transform="translate(117.5625,232.5625)"/>
<path d="M0 0 C2.86902035 0.58851699 3.63146613 1.24373672 5.4375 3.5 C8.94987044 17.34459349 -0.87219449 36.82600265 -7.5625 48.5 C-9.96971167 52.08078511 -12.50823716 55.44573716 -15.5625 58.5 C-18.33443929 58.79178308 -19.97659825 58.86366316 -22.375 57.375 C-24.11934477 54.62077142 -23.85783749 52.72151031 -23.5625 49.5 C-22.05859375 46.73828125 -22.05859375 46.73828125 -20 43.8125 C-12.86252843 33.01663396 -8.69063625 20.61823704 -7.0078125 7.8359375 C-6.16850499 3.43325427 -4.44073123 0.86648414 0 0 Z " fill="#EEF0FE" transform="translate(242.5625,237.5)"/>
<path d="M0 0 C1.875 1.1875 1.875 1.1875 3 3 C3.41648062 6.13922264 3.37182539 7.50485563 1.4453125 10.0703125 C-4.13487355 15.01168938 -9.99309512 19.12165422 -16.3125 23.0625 C-17.47724854 23.79654053 -17.47724854 23.79654053 -18.66552734 24.54541016 C-25.69255421 28.78834385 -25.69255421 28.78834385 -30 28 C-31.8125 26.875 -31.8125 26.875 -33 25 C-33.5 22.0625 -33.5 22.0625 -33 19 C-29.4005809 15.72112286 -25.30303689 13.20000037 -21.1875 10.625 C-17.11977472 8.06625249 -13.23247338 5.47690289 -9.5 2.4375 C-6.29133539 -0.03598878 -4.12463685 -0.86329608 0 0 Z " fill="#EDF0FE" transform="translate(296,364)"/>
<path d="M0 0 C1.9375 1.0625 1.9375 1.0625 3 3 C3.3125 6.3125 3.3125 6.3125 2 10 C-4.42223387 15.5917726 -16.26945128 21.456517 -24.80078125 22.265625 C-27 22 -27 22 -28.875 20.375 C-30.45602744 17.03727541 -30.17583297 15.49239941 -29 12 C-26.67622749 10.15345139 -24.08703785 9.04973297 -21.375 7.875 C-19.96523953 7.22853525 -18.55637703 6.58010854 -17.1484375 5.9296875 C-16.10913086 5.46042847 -16.10913086 5.46042847 -15.04882812 4.98168945 C-13.02223043 4.01065164 -11.11118139 2.93217196 -9.1796875 1.78515625 C-5.70569949 -0.16522768 -3.91253101 -0.62244812 0 0 Z " fill="#EEF1FE" transform="translate(202,364)"/>
<path d="M0 0 C0.83853516 0.00064453 1.67707031 0.00128906 2.54101562 0.00195312 C3.8490918 0.02612305 3.8490918 0.02612305 5.18359375 0.05078125 C6.05951172 0.04755859 6.93542969 0.04433594 7.83789062 0.04101562 C14.35400694 0.09619444 14.35400694 0.09619444 16.62109375 2.36328125 C16.99609375 5.80078125 16.99609375 5.80078125 16.62109375 9.36328125 C14.8363289 11.43992453 13.36373008 12.25078014 10.65332031 12.66137695 C8.28065625 12.80395259 5.93529867 12.82154674 3.55859375 12.80078125 C2.74326172 12.82076172 1.92792969 12.84074219 1.08789062 12.86132812 C-4.83310482 12.85646289 -4.83310482 12.85646289 -7.4453125 10.49609375 C-8.6889916 7.65488542 -8.41861568 6.25961467 -7.37890625 3.36328125 C-5.10795778 0.47428162 -3.63028745 -0.01409894 0 0 Z " fill="#ECF0FE" transform="translate(218.37890625,140.63671875)"/>
<path d="M0 0 C2.726352 5.452704 1.24535757 14.14681943 0 20 C-2 22 -2 22 -5.5 22.25 C-9 22 -9 22 -11 20 C-11.64484782 13.21961479 -11.59884733 6.35273793 -9 0 C-5.88173308 -1.55913346 -3.32926126 -0.66585225 0 0 Z " fill="#F0F1FE" transform="translate(99,235)"/>
</svg>
