<?xml version="1.0" encoding="UTF-8"?>
<svg version="1.1" xmlns="http://www.w3.org/2000/svg" width="512" height="512">
<path d="M0 0 C0.85062012 0.37108887 1.70124023 0.74217773 2.57763672 1.12451172 C38.58215498 17.05231153 71.61474591 41.97706091 96 73 C96.60585938 73.71542969 97.21171875 74.43085937 97.8359375 75.16796875 C131.45727605 115.24403685 152.93427491 170.49182306 153.203125 223.01171875 C153.21018463 223.93436523 153.21724426 224.85701172 153.22451782 225.80761719 C153.45148416 264.17016947 153.45148416 264.17016947 150 281 C149.69400879 282.53696533 149.69400879 282.53696533 149.38183594 284.10498047 C144.99656504 305.65791669 138.61371532 326.20437307 129 346 C128.60329102 346.81936035 128.20658203 347.6387207 127.79785156 348.48291016 C102.81736658 399.44193673 102.81736658 399.44193673 85.6875 407 C83.265625 407.65625 83.265625 407.65625 81 408 C80.31421875 408.1134375 79.6284375 408.226875 78.921875 408.34375 C72.38004383 408.85885482 66.55414465 406.05535967 61.56918335 402.04388428 C58.93189225 399.60709508 56.3844572 397.10371141 53.85546875 394.5546875 C52.45715569 393.16710739 52.45715569 393.16710739 51.03059387 391.75149536 C49.06843216 389.80114739 47.11572774 387.84191339 45.16918945 385.87597656 C42.69200365 383.37591598 40.19084095 380.90154113 37.68172741 378.43357658 C35.26693105 376.0507211 32.87499523 373.64541161 30.48046875 371.2421875 C29.58877487 370.36577606 28.69708099 369.48936462 27.77836609 368.58639526 C22.04153364 362.74134953 17.15407971 356.74984079 16.92570496 348.22750854 C17.36165106 340.33204557 20.97335065 334.83019594 25.625 328.625 C45.74498113 300.93878285 54.93426471 269.1594444 55.625 235.1875 C55.66329742 233.60870521 55.70235536 232.02992869 55.7421875 230.45117188 C55.83686651 226.63426763 55.92134621 222.8172667 56 219 C46.5625787 221.45421792 37.12904723 223.9227646 27.69988632 226.40853119 C23.31907193 227.56296909 18.93717812 228.71285547 14.55224609 229.8515625 C-18.78379269 238.15332097 -18.78379269 238.15332097 -49.6875 252.8125 C-50.51999268 253.31676514 -51.35248535 253.82103027 -52.21020508 254.34057617 C-58.09972902 258.06281102 -62.06173419 261.85768552 -66.140625 267.52734375 C-72.40696297 275.86052008 -83.2600786 281.84438723 -93.4609375 283.71875 C-108.14546543 285.34534386 -121.5518125 282.90880978 -133.6015625 274.09765625 C-142.78286911 266.42807535 -149.77802615 255.57952009 -151.31616211 243.52148438 C-151.47247648 240.92241405 -151.51917611 238.35363608 -151.5 235.75 C-151.49033203 234.36965576 -151.49033203 234.36965576 -151.48046875 232.96142578 C-151.12217698 219.53255608 -145.57616531 208.2206052 -135.8359375 198.9375 C-123.80870167 189.07771656 -111.37316764 185.86760149 -96 187 C-90.91510263 187.94693242 -86.27636468 189.40922549 -81.58203125 191.58203125 C-75.45828316 193.88381983 -69.01342714 193.43314556 -62.5625 193.375 C-61.31017578 193.38660156 -60.05785156 193.39820313 -58.76757812 193.41015625 C-52.06988598 193.38964264 -45.6704828 192.94644784 -39.078125 191.75317383 C-38.3457364 191.6217332 -37.6133478 191.49029257 -36.8587656 191.35486889 C-28.72900952 189.8407451 -20.78106777 187.72867965 -12.80859375 185.55078125 C-11.24122565 185.128444 -9.67368133 184.70676022 -8.10597229 184.28569031 C-4.04214793 183.19236024 0.0192721 182.09035962 4.0802002 180.98632812 C8.24927414 179.85461983 12.42063759 178.73141481 16.59179688 177.60742188 C24.73008649 175.41310903 32.86584786 173.20960063 41 171 C41 154.5185665 19.79052205 134.03858003 9 123 C8.3503125 122.2884375 7.700625 121.576875 7.03125 120.84375 C-3.61100053 109.45467487 -17.24150722 101.07539952 -31 94 C-31.60634277 93.68192383 -32.21268555 93.36384766 -32.83740234 93.03613281 C-69.32841339 74.08259275 -113.18431015 72.26431467 -152.05859375 84.3359375 C-159.29228925 86.70383705 -166.1697406 89.65613018 -173 93 C-173.62036133 93.29600098 -174.24072266 93.59200195 -174.87988281 93.89697266 C-189.52233273 100.94407999 -202.2860787 110.78667363 -214 122 C-214.80566406 122.7425 -215.61132812 123.485 -216.44140625 124.25 C-237.42534483 144.21593843 -251.28645519 172.07729862 -258 200 C-258.31839844 201.26199219 -258.63679688 202.52398437 -258.96484375 203.82421875 C-267.45604773 241.98065721 -259.16925735 285.63722774 -238.63842773 318.59960938 C-235.47721133 323.52956127 -232.08373636 328.25737572 -228.5625 332.9375 C-223.8340298 339.39911466 -222.68317812 344.39569992 -223.22265625 352.27734375 C-225.60686925 360.62807974 -232.17343351 366.64075741 -238.140625 372.609375 C-239.46305206 373.94322235 -239.46305206 373.94322235 -240.81219482 375.30401611 C-243.14395269 377.64927409 -245.48334998 379.98660369 -247.82476807 382.32220459 C-249.24896888 383.74896703 -250.66510475 385.18325419 -252.07861328 386.62060547 C-254.81572774 389.40067378 -257.56939616 392.16327167 -260.328125 394.921875 C-261.16281311 395.77295837 -261.99750122 396.62404175 -262.85748291 397.50091553 C-268.89956497 403.47306994 -274.38938412 407.41452497 -282.9375 408.5 C-290.27254441 407.963643 -295.88321716 405.62832604 -300.90942383 400.13623047 C-335.85100788 359.11757252 -358.92713111 301.96674209 -359.203125 247.98828125 C-359.21364647 246.60403961 -359.21364647 246.60403961 -359.22438049 245.1918335 C-359.24178045 242.23200542 -359.24823219 239.27237734 -359.25 236.3125 C-359.25067474 235.30178436 -359.25134949 234.29106873 -359.25204468 233.24972534 C-359.23652605 218.63973771 -358.92654595 204.36336407 -356 190 C-355.81775879 189.0836377 -355.63551758 188.16727539 -355.44775391 187.22314453 C-354.13610223 180.77008127 -352.63392752 174.37855368 -351 168 C-350.81211914 167.25588867 -350.62423828 166.51177734 -350.43066406 165.74511719 C-339.43617226 123.04102157 -315.07081089 85.66334605 -285 54 C-284.21496094 53.17242187 -283.42992187 52.34484375 -282.62109375 51.4921875 C-277.1190676 45.842522 -271.18969032 40.87747597 -265 36 C-264.01257813 35.20722656 -263.02515625 34.41445312 -262.0078125 33.59765625 C-188.40909735 -24.49210272 -85.89284033 -37.56048264 0 0 Z " fill="#FEC244" transform="translate(359,37)"/>
<path d="M0 0 C1.11980193 0.95048447 2.23827994 1.90252884 3.35620117 2.85522461 C4.29069344 3.65022621 4.29069344 3.65022621 5.24406433 4.46128845 C47.0840617 41.12532362 70.74338874 104.81103163 75 159 C75.14504657 162.33772574 75.18602435 165.67110503 75.203125 169.01171875 C75.21018463 169.93436523 75.21724426 170.85701172 75.22451782 171.80761719 C75.45148416 210.17016947 75.45148416 210.17016947 72 227 C71.79600586 228.02464355 71.59201172 229.04928711 71.38183594 230.10498047 C66.99656504 251.65791669 60.61371532 272.20437307 51 292 C50.60329102 292.81936035 50.20658203 293.6387207 49.79785156 294.48291016 C24.81736658 345.44193673 24.81736658 345.44193673 7.6875 353 C5.265625 353.65625 5.265625 353.65625 3 354 C2.31421875 354.1134375 1.6284375 354.226875 0.921875 354.34375 C-5.61995617 354.85885482 -11.44585535 352.05535967 -16.43081665 348.04388428 C-19.06810775 345.60709508 -21.6155428 343.10371141 -24.14453125 340.5546875 C-25.54284431 339.16710739 -25.54284431 339.16710739 -26.96940613 337.75149536 C-28.93156784 335.80114739 -30.88427226 333.84191339 -32.83081055 331.87597656 C-35.30799635 329.37591598 -37.80915905 326.90154113 -40.31827259 324.43357658 C-42.73306895 322.0507211 -45.12500477 319.64541161 -47.51953125 317.2421875 C-48.41122513 316.36577606 -49.30291901 315.48936462 -50.22163391 314.58639526 C-55.95846636 308.74134953 -60.84592029 302.74984079 -61.07429504 294.22750854 C-60.63834894 286.33204557 -57.02664935 280.83019594 -52.375 274.625 C-32.25501887 246.93878285 -23.06573529 215.1594444 -22.375 181.1875 C-22.33670258 179.60870521 -22.29764464 178.02992869 -22.2578125 176.45117188 C-22.16313349 172.63426763 -22.07865379 168.8172667 -22 165 C-31.4374213 167.45421792 -40.87095277 169.9227646 -50.30011368 172.40853119 C-54.68092807 173.56296909 -59.06282188 174.71285547 -63.44775391 175.8515625 C-96.78379269 184.15332097 -96.78379269 184.15332097 -127.6875 198.8125 C-128.93623901 199.56889771 -128.93623901 199.56889771 -130.21020508 200.34057617 C-136.09972902 204.06281102 -140.06173419 207.85768552 -144.140625 213.52734375 C-150.40696297 221.86052008 -161.2600786 227.84438723 -171.4609375 229.71875 C-186.14546543 231.34534386 -199.5518125 228.90880978 -211.6015625 220.09765625 C-220.78286911 212.42807535 -227.77802615 201.57952009 -229.31616211 189.52148438 C-229.47247648 186.92241405 -229.51917611 184.35363608 -229.5 181.75 C-229.49355469 180.82977051 -229.48710937 179.90954102 -229.48046875 178.96142578 C-229.12217698 165.53255608 -223.57616531 154.2206052 -213.8359375 144.9375 C-201.80870167 135.07771656 -189.37316764 131.86760149 -174 133 C-168.91510263 133.94693242 -164.27636468 135.40922549 -159.58203125 137.58203125 C-153.45828316 139.88381983 -147.01342714 139.43314556 -140.5625 139.375 C-139.31017578 139.38660156 -138.05785156 139.39820313 -136.76757812 139.41015625 C-130.06988598 139.38964264 -123.6704828 138.94644784 -117.078125 137.75317383 C-116.3457364 137.6217332 -115.6133478 137.49029257 -114.8587656 137.35486889 C-106.72900952 135.8407451 -98.78106777 133.72867965 -90.80859375 131.55078125 C-89.24122565 131.128444 -87.67368133 130.70676022 -86.10597229 130.28569031 C-82.04214793 129.19236024 -77.9807279 128.09035962 -73.9197998 126.98632812 C-69.75072586 125.85461983 -65.57936241 124.73141481 -61.40820312 123.60742188 C-53.26991351 121.41310903 -45.13415214 119.20960063 -37 117 C-37 101.00503687 -57.47620831 80.75166906 -68 70 C-66.72829615 67.21617957 -65.41939717 65.17065422 -63.25387573 63.0133667 C-62.69579224 62.45253387 -62.13770874 61.89170105 -61.56271362 61.31387329 C-60.95275543 60.71110565 -60.34279724 60.10833801 -59.71435547 59.48730469 C-59.07032776 58.84298492 -58.42630005 58.19866516 -57.76275635 57.53482056 C-55.63560693 55.40906302 -53.50146388 53.29047492 -51.3671875 51.171875 C-49.88987407 49.69829219 -48.41300196 48.22426682 -46.93655396 46.74981689 C-43.05129631 42.87219179 -39.16006971 39.00061059 -35.26757812 35.13024902 C-31.29586322 31.17900061 -27.329811 27.22207739 -23.36328125 23.265625 C-15.5810588 15.50484579 -7.79252001 7.75043852 0 0 Z " fill="#E84444" transform="translate(437,91)"/>
<path d="M0 0 C4.70745077 3.9317076 9.1641171 8.02257286 13.48608398 12.37255859 C14.39469933 13.2809549 14.39469933 13.2809549 15.32167053 14.20770264 C17.29886146 16.18558341 19.27249876 18.16696914 21.24609375 20.1484375 C22.62592516 21.53013639 24.0059793 22.91161288 25.38624573 24.2928772 C29.0002185 27.91064913 32.61117673 31.53141519 36.22149658 35.15283203 C39.91341203 38.85501777 43.60819663 42.55433771 47.30273438 46.25390625 C54.53795303 53.49981631 61.76998741 60.74889555 69 68 C67.33385548 71.5409048 65.37610471 73.82047578 62.625 76.625 C51.73708051 88.44122477 43.54490035 102.3834301 37 117 C36.72462402 117.60875977 36.44924805 118.21751953 36.16552734 118.84472656 C32.85769637 126.27388763 30.35103394 133.78390688 28.25 141.625 C27.95186401 142.73355347 27.95186401 142.73355347 27.64770508 143.86450195 C24.51820547 156.15580283 23.58963287 168.30613897 23.625 180.9375 C23.62631424 182.08910614 23.62631424 182.08910614 23.62765503 183.26397705 C23.75992201 218.5330349 35.28275671 250.82043614 56.4375 278.9375 C61.1659702 285.39911466 62.31682188 290.39569992 61.77734375 298.27734375 C59.39313075 306.62807974 52.82656649 312.64075741 46.859375 318.609375 C45.53694794 319.94322235 45.53694794 319.94322235 44.18780518 321.30401611 C41.85604731 323.64927409 39.51665002 325.98660369 37.17523193 328.32220459 C35.75103112 329.74896703 34.33489525 331.18325419 32.92138672 332.62060547 C30.18427226 335.40067378 27.43060384 338.16327167 24.671875 340.921875 C23.83718689 341.77295837 23.00249878 342.62404175 22.14251709 343.50091553 C16.10043503 349.47306994 10.61061588 353.41452497 2.0625 354.5 C-5.27254441 353.963643 -10.88321716 351.62832604 -15.90942383 346.13623047 C-50.85100788 305.11757252 -73.92713111 247.96674209 -74.203125 193.98828125 C-74.21013931 193.06545349 -74.21715363 192.14262573 -74.22438049 191.1918335 C-74.24178045 188.23200542 -74.24823219 185.27237734 -74.25 182.3125 C-74.25067474 181.30178436 -74.25134949 180.29106873 -74.25204468 179.24972534 C-74.23652605 164.63973771 -73.92654595 150.36336407 -71 136 C-70.81775879 135.0836377 -70.63551758 134.16727539 -70.44775391 133.22314453 C-69.13610223 126.77008127 -67.63392752 120.37855368 -66 114 C-65.81211914 113.25588867 -65.62423828 112.51177734 -65.43066406 111.74511719 C-54.39745354 68.89063281 -29.96907783 31.89602362 0 0 Z " fill="#7FD260" transform="translate(74,91)"/>
<path d="M0 0 C4.95346583 4.39033498 8.34252047 9.67524577 9.3515625 16.3125 C9.80508423 23.95076066 7.27524527 29.81903048 2.6015625 35.78515625 C-5.02918681 43.35780341 -17.62603734 45.29196424 -27.67602539 47.86132812 C-31.38228503 48.82326648 -35.05923792 49.86979044 -38.73573303 50.93917847 C-47.98746507 53.62926221 -57.2751477 56.15302772 -66.59765625 58.5859375 C-68.99024481 59.21350188 -71.38282282 59.84110649 -73.77539062 60.46875 C-77.42168933 61.42457825 -81.06877774 62.37661795 -84.71899414 63.31738281 C-103.73921846 68.22829534 -122.81163794 73.41746165 -139.6875 83.8125 C-140.51999268 84.31676514 -141.35248535 84.82103027 -142.21020508 85.34057617 C-148.09972902 89.06281102 -152.06173419 92.85768552 -156.140625 98.52734375 C-162.40696297 106.86052008 -173.2600786 112.84438723 -183.4609375 114.71875 C-198.14546543 116.34534386 -211.5518125 113.90880978 -223.6015625 105.09765625 C-232.78286911 97.42807535 -239.77802615 86.57952009 -241.31616211 74.52148438 C-241.47247648 71.92241405 -241.51917611 69.35363608 -241.5 66.75 C-241.49355469 65.82977051 -241.48710937 64.90954102 -241.48046875 63.96142578 C-241.12217698 50.53255608 -235.57616531 39.2206052 -225.8359375 29.9375 C-213.80870167 20.07771656 -201.37316764 16.86760149 -186 18 C-180.91510263 18.94693242 -176.27636468 20.40922549 -171.58203125 22.58203125 C-165.45828316 24.88381983 -159.01342714 24.43314556 -152.5625 24.375 C-151.31017578 24.38660156 -150.05785156 24.39820313 -148.76757812 24.41015625 C-142.06248884 24.38961999 -135.65791704 23.94384038 -129.05834961 22.7487793 C-128.32532372 22.61719705 -127.59229782 22.4856148 -126.83705902 22.3500452 C-118.81971546 20.85706674 -110.98519836 18.77583037 -103.125 16.62109375 C-101.57920953 16.20348652 -100.03322516 15.78659645 -98.48706055 15.37037659 C-94.47109836 14.28756788 -90.45746135 13.19639812 -86.44439697 12.10290527 C-79.9975935 10.34797877 -73.54705674 8.60681078 -67.09686279 6.86439705 C-64.86682136 6.26079679 -62.63767988 5.65396906 -60.40869141 5.04649353 C-53.6334382 3.20541044 -46.86674293 1.46608189 -40 0 C-38.36241059 -0.41624842 -36.72738567 -0.84303129 -35.09765625 -1.2890625 C-33.85532227 -1.61777344 -33.85532227 -1.61777344 -32.58789062 -1.953125 C-30.90598349 -2.40059295 -29.22625089 -2.85631677 -27.54882812 -3.3203125 C-17.27409361 -6.00276067 -8.97998224 -6.15725898 0 0 Z " fill="#004281" transform="translate(449,206)"/>
<path d="M0 0 C43.99113383 35.5672997 68.56866781 98.93134165 74.53491211 153.69921875 C75.03071368 158.80975012 75.17685374 163.87962434 75.203125 169.01171875 C75.21018463 169.93436523 75.21724426 170.85701172 75.22451782 171.80761719 C75.45148416 210.17016947 75.45148416 210.17016947 72 227 C71.79600586 228.02464355 71.59201172 229.04928711 71.38183594 230.10498047 C66.99656504 251.65791669 60.61371532 272.20437307 51 292 C50.60329102 292.81936035 50.20658203 293.6387207 49.79785156 294.48291016 C24.81736658 345.44193673 24.81736658 345.44193673 7.6875 353 C5.265625 353.65625 5.265625 353.65625 3 354 C2.31421875 354.1134375 1.6284375 354.226875 0.921875 354.34375 C-5.32887729 354.83593522 -11.2316803 352.17023728 -16.07009888 348.37713623 C-18.14501383 346.46156947 -20.12951283 344.48600032 -22.09765625 342.4609375 C-22.8173912 341.73887115 -23.53712616 341.01680481 -24.27867126 340.27285767 C-25.78440773 338.75744048 -27.2841493 337.23604497 -28.77807617 335.70898438 C-31.07479025 333.36244311 -33.39004841 331.03550136 -35.70898438 328.7109375 C-37.17298328 327.23286774 -38.63591354 325.75373857 -40.09765625 324.2734375 C-40.79125748 323.57447357 -41.4848587 322.87550964 -42.19947815 322.15536499 C-42.83111374 321.507742 -43.46274933 320.86011902 -44.11352539 320.19287109 C-44.672621 319.62313568 -45.23171661 319.05340027 -45.80775452 318.46640015 C-47 317 -47 317 -47 315 C-46.34515625 314.97421875 -45.6903125 314.9484375 -45.015625 314.921875 C-31.07625521 314.05558648 -18.07445641 308.8505796 -8 299 C-2.96785294 292.45943955 1.15069547 285.50431223 4.9375 278.1875 C5.71226685 276.69089844 5.71226685 276.69089844 6.50268555 275.1640625 C11.46927701 265.37474907 15.48616037 255.3911433 19 245 C19.30776367 244.09846191 19.61552734 243.19692383 19.93261719 242.26806641 C37.66382602 189.52837367 37.67425368 131.83315219 20 79 C19.60683594 77.79730469 19.21367187 76.59460938 18.80859375 75.35546875 C11.80157923 55.38024826 1.99998199 36.26497446 -9.87768555 18.76977539 C-11.04882633 16.92300587 -12.02202982 14.95594037 -13 13 C-8.71 8.71 -4.42 4.42 0 0 Z " fill="#D83131" transform="translate(437,91)"/>
<path d="M0 0 C3.79560319 2.60971027 5.9992705 5.1681757 8.2421875 9.1640625 C8.82548828 10.19015625 9.40878906 11.21625 10.00976562 12.2734375 C10.62529297 13.37945312 11.24082031 14.48546875 11.875 15.625 C12.53471848 16.79228271 13.19554672 17.95893882 13.85742188 19.125 C15.23054315 21.5461013 16.5988675 23.96981903 17.96386719 26.39550781 C21.09809082 31.95591478 24.30270324 37.47571151 27.5 43 C28.75032927 45.16647667 30.00032827 47.33314398 31.25 49.5 C31.86875 50.5725 32.4875 51.645 33.125 52.75 C35 56 36.875 59.25 38.75 62.5 C39.36963623 63.57403076 39.98927246 64.64806152 40.62768555 65.75463867 C41.86875254 67.90583224 43.10980093 70.05703655 44.35083008 72.20825195 C47.26498344 77.25962999 50.17931818 82.3109031 53.09432983 87.36178589 C54.12673478 89.15066918 55.15907956 90.93958717 56.19140625 92.72851562 C57.48685948 94.97337636 58.7824257 97.2181719 60.078125 99.46289062 C61.22328187 101.44740973 62.36657541 103.43300582 63.50756836 105.41992188 C64.42253413 107.00169158 65.34803638 108.57749429 66.29125977 110.14257812 C69.19190074 114.99179537 69.80550548 117.45096224 69 123 C67.26416016 125.70175171 67.26416016 125.70175171 64 128 C59.74310729 128.75793336 55.52510014 128.68255404 51.2109375 128.64697266 C49.91126038 128.65573425 48.61158325 128.66449585 47.27252197 128.67352295 C43.71450664 128.69628556 40.15721752 128.6874933 36.59918976 128.67162752 C32.87258473 128.65895241 29.14604111 128.67071309 25.41943359 128.67855835 C19.1616705 128.68765029 12.90420263 128.67567923 6.64648438 128.65185547 C-0.58430706 128.6246447 -7.81439357 128.63345922 -15.04516792 128.6609875 C-21.25767099 128.68369081 -27.46996206 128.68687279 -33.68249321 128.67379415 C-37.39108711 128.66600621 -41.09934985 128.66493951 -44.80792236 128.68147659 C-48.94268415 128.69862684 -53.07623425 128.6748462 -57.2109375 128.64697266 C-58.43810486 128.65709381 -59.66527222 128.66721497 -60.92962646 128.67764282 C-69.19345735 128.57427295 -69.19345735 128.57427295 -73.25488281 125.6824646 C-75.116158 122.82145055 -75.80223211 120.77877255 -75.56933594 117.34716797 C-74.30388119 112.13015169 -71.34167895 107.63830718 -68.625 103.0625 C-67.66098267 101.39272095 -67.66098267 101.39272095 -66.67749023 99.68920898 C-64.80183176 96.44926489 -62.90434698 93.22314249 -61 90 C-60.12292355 88.50045265 -59.24651122 87.00051644 -58.37109375 85.5 C-56.81360551 82.83838301 -55.24552697 80.18333775 -53.671875 77.53125 C-50.33998045 71.90132065 -47.07858182 66.23077539 -43.8125 60.5625 C-43.17812012 59.46180176 -42.54374023 58.36110352 -41.89013672 57.22705078 C-39.92618461 53.81836363 -37.9629639 50.40925632 -36 47 C-32.15752036 40.32641931 -28.31360452 33.65372966 -24.45703125 26.98828125 C-22.29144991 23.24513198 -20.14239543 19.49358265 -18.01171875 15.73046875 C-17.13297504 14.19521946 -16.25408102 12.66005618 -15.375 11.125 C-14.99754639 10.44751709 -14.62009277 9.77003418 -14.23120117 9.07202148 C-10.78938836 3.10647129 -7.29234431 -1.21539072 0 0 Z " fill="#FEC244" transform="translate(259,368)"/>
<path d="M0 0 C9.56684408 7.8980412 17.01050374 17.8859838 18.9375 30.4375 C19.02537803 31.76940145 19.08539452 33.10329033 19.125 34.4375 C19.186875 35.32824219 19.24875 36.21898437 19.3125 37.13671875 C19.8429699 49.8182648 15.63121721 62.2222266 7.5625 72 C-1.03887369 81.25686871 -12.42467619 86.83081255 -25.0390625 87.640625 C-40.45283171 87.84938937 -53.21974766 83.73112289 -64.546875 73.02734375 C-73.22914683 63.36904472 -77.46962119 52.03469251 -77.375 39.1875 C-77.36855469 38.26727051 -77.36210937 37.34704102 -77.35546875 36.39892578 C-76.99717698 22.97005608 -71.45116531 11.6581052 -61.7109375 2.375 C-43.61114458 -12.46299278 -19.01954871 -14.37289114 0 0 Z " fill="#0066C4" transform="translate(284.875,233.5625)"/>
<path d="M0 0 C32.49172468 10.04023564 63.40885059 31.70985357 87 56 C85.41332422 59.90285767 82.86649519 62.33520982 79.875 65.25 C78.96492188 66.14203125 78.05484375 67.0340625 77.1171875 67.953125 C76.41851562 68.62859375 75.71984375 69.3040625 75 70 C71.10386324 68.52215502 69.99388692 66.56936752 68 63 C55.11382953 46.15482535 39.95956938 29.80099004 23 17 C22.11199707 16.32928467 22.11199707 16.32928467 21.20605469 15.64501953 C14.30610906 10.45524234 7.36652302 5.51011613 0 1 C0 0.67 0 0.34 0 0 Z " fill="#FDB237" transform="translate(350,34)"/>
<path d="M0 0 C3.71107145 0.61851191 4.67404609 1.59679306 7 4.5 C7.50170898 7.01782227 7.50170898 7.01782227 7.49609375 9.81640625 C7.49706055 11.33331055 7.49706055 11.33331055 7.49804688 12.88085938 C7.47806641 13.93080078 7.45808594 14.98074219 7.4375 16.0625 C7.44458984 17.11630859 7.45167969 18.17011719 7.45898438 19.25585938 C7.39499859 26.96860748 7.39499859 26.96860748 5.68774414 29.26538086 C2.87933861 31.31978658 0.41774707 31.44003953 -3 31.5 C-5.63563385 29.49447308 -6.84010562 28.2729234 -7.51757812 24.99804688 C-7.5243457 23.62229492 -7.5243457 23.62229492 -7.53125 22.21875 C-7.53640625 21.21199219 -7.5415625 20.20523437 -7.546875 19.16796875 C-7.53140625 18.12253906 -7.5159375 17.07710938 -7.5 16 C-7.51546875 14.95457031 -7.5309375 13.90914063 -7.546875 12.83203125 C-7.54171875 11.82527344 -7.5365625 10.81851562 -7.53125 9.78125 C-7.52673828 8.86408203 -7.52222656 7.94691406 -7.51757812 7.00195312 C-6.61691699 2.64819117 -4.29730972 0.71621829 0 0 Z " fill="#0356A1" transform="translate(256,408.5)"/>
<path d="M0 0 C2.375 1.5625 2.375 1.5625 4 4 C4.56783945 7.97487617 4.62340519 10.06489221 2.375 13.4375 C-0.71685231 15.47161336 -2.36367425 15.60605429 -6 15 C-8.375 13.4375 -8.375 13.4375 -10 11 C-10.56783945 7.02512383 -10.62340519 4.93510779 -8.375 1.5625 C-5.28314769 -0.47161336 -3.63632575 -0.60605429 0 0 Z " fill="#0758A0" transform="translate(259,457)"/>
</svg>
