<?xml version="1.0" encoding="UTF-8"?>
<svg version="1.1" xmlns="http://www.w3.org/2000/svg" width="512" height="512">
<path d="M0 0 C1.01790619 0.00215515 2.03581238 0.0043103 3.08456421 0.00653076 C17.69363523 0.05620146 32.02575853 0.30709809 46.375 3.3125 C47.34985352 3.51117676 48.32470703 3.70985352 49.32910156 3.91455078 C97.7109774 14.03517194 141.69928269 35.9516877 177.375 70.3125 C178.3640332 71.26068604 178.3640332 71.26068604 179.37304688 72.22802734 C188.86130305 81.37247479 197.6012044 90.66984009 205.375 101.3125 C206.23306152 102.46355017 207.09113451 103.61459177 207.94921875 104.765625 C213.98736829 112.95680614 219.34595521 121.47054105 224.375 130.3125 C224.73948242 130.94430176 225.10396484 131.57610352 225.47949219 132.22705078 C247.08534998 169.97532572 256.85198095 212.74189997 256.6875 255.9375 C256.68534485 256.95540619 256.6831897 257.97331238 256.68096924 259.02206421 C256.63129854 273.63113523 256.38040191 287.96325853 253.375 302.3125 C253.07698486 303.77478027 253.07698486 303.77478027 252.77294922 305.26660156 C242.65232806 353.6484774 220.7358123 397.63678269 186.375 433.3125 C185.74287598 433.97185547 185.11075195 434.63121094 184.45947266 435.31054688 C175.31502521 444.79880305 166.01765991 453.5387044 155.375 461.3125 C154.22394983 462.17056152 153.07290823 463.02863451 151.921875 463.88671875 C143.73224019 469.92427396 135.22961724 475.30707302 126.375 480.3125 C125.66778809 480.7146875 124.96057617 481.116875 124.23193359 481.53125 C101.09654164 494.5566741 75.92537591 503.30551461 49.9375 508.625 C49.21860596 508.77235596 48.49971191 508.91971191 47.7590332 509.0715332 C33.08339502 511.86090125 18.55831162 512.66142619 3.64770508 512.62817383 C0.70811513 512.6250221 -2.2304558 512.64854926 -5.16992188 512.67382812 C-18.54306192 512.71848737 -31.43916711 511.51301542 -44.625 509.3125 C-46.33055054 509.03031616 -46.33055054 509.03031616 -48.07055664 508.74243164 C-91.33802759 500.97044532 -132.38793216 480.98345309 -165.625 452.3125 C-166.37007813 451.67828125 -167.11515625 451.0440625 -167.8828125 450.390625 C-181.38779833 438.57948485 -194.05918743 425.82889772 -204.625 411.3125 C-205.48149066 410.16255169 -206.33826433 409.01281411 -207.1953125 407.86328125 C-213.23534209 399.67315742 -218.61867614 391.16870382 -223.625 382.3125 C-224.0271875 381.60528809 -224.429375 380.89807617 -224.84375 380.16943359 C-237.8691741 357.03404164 -246.61801461 331.86287591 -251.9375 305.875 C-252.08485596 305.15610596 -252.23221191 304.43721191 -252.3840332 303.6965332 C-255.35789088 288.05024391 -255.99800362 272.57681954 -255.9375 256.6875 C-255.93534485 255.66959381 -255.9331897 254.65168762 -255.93096924 253.60293579 C-255.88129854 238.99386477 -255.63040191 224.66174147 -252.625 210.3125 C-252.42632324 209.33764648 -252.22764648 208.36279297 -252.02294922 207.35839844 C-241.90232806 158.9765226 -219.9858123 114.98821731 -185.625 79.3125 C-184.99287598 78.65314453 -184.36075195 77.99378906 -183.70947266 77.31445312 C-174.56502521 67.82619695 -165.26765991 59.0862956 -154.625 51.3125 C-153.47394983 50.45443848 -152.32290823 49.59636549 -151.171875 48.73828125 C-142.98224019 42.70072604 -134.47961724 37.31792698 -125.625 32.3125 C-124.91778809 31.9103125 -124.21057617 31.508125 -123.48193359 31.09375 C-100.34654164 18.0683259 -75.17537591 9.31948539 -49.1875 4 C-48.46860596 3.85264404 -47.74971191 3.70528809 -47.0090332 3.5534668 C-31.36274391 0.57960912 -15.88931954 -0.06050362 0 0 Z " fill="#36A1F5" transform="translate(255.625,-0.3125)"/>
<path d="M0 0 C1.30213943 -0.0112088 2.60427887 -0.0224176 3.94587708 -0.03396606 C5.38213031 -0.02105544 6.81837909 -0.00764133 8.25462341 0.00622559 C9.77282328 0.00272307 11.29101948 -0.00293698 12.8092041 -0.0105896 C16.92966082 -0.02483732 21.04945004 -0.00777132 25.16984296 0.01569557 C29.49106401 0.0358287 33.81225797 0.02992329 38.1335144 0.02758789 C45.39762845 0.02764148 52.66148256 0.04739688 59.92552185 0.07946777 C68.30005079 0.11626406 76.67423802 0.12515673 85.04883724 0.11817026 C93.12356678 0.11184025 101.1981802 0.12267182 109.27288628 0.14213562 C112.69881291 0.15026853 116.12467985 0.15302673 119.55061531 0.15144348 C123.59809908 0.15055742 127.64526373 0.16497237 131.69266319 0.19067001 C133.16955135 0.19776849 134.64647362 0.19994635 136.12337494 0.19655228 C150.19525253 0.17040722 163.0410369 1.80882013 173.7797699 11.66052246 C183.36318166 21.79923472 186.85439069 32.77517763 186.86351013 46.43444824 C186.87183365 47.50033173 186.88015717 48.56621521 186.88873291 49.66439819 C186.91275097 53.17356047 186.92159279 56.68253682 186.9282074 60.19177246 C186.93717619 62.6360174 186.94629809 65.08026179 186.95556641 67.52450562 C186.97203399 72.64033339 186.97975313 77.75609586 186.98265076 82.87194824 C186.98804849 89.43050421 187.0257963 95.98844838 187.07139492 102.54683113 C187.10110829 107.59111794 187.10837299 112.63525592 187.10937691 117.67962265 C187.11358643 120.0981821 187.12604983 122.51674171 187.14689445 124.935215 C187.17370364 128.31302606 187.16901486 131.68939818 187.15647888 135.06726074 C187.17873032 136.56667206 187.17873032 136.56667206 187.20143127 138.09637451 C187.19166763 139.01868866 187.18190399 139.94100281 187.17184448 140.89126587 C187.17385581 141.688743 187.17586714 142.48622013 187.17793941 143.30786324 C186.22211212 146.86989143 184.42800541 148.37964717 181.55711365 150.62145996 C178.47661495 151.25066566 178.47661495 151.25066566 174.96237183 151.25637817 C174.31319811 151.26417813 173.6640244 151.27197808 172.99517876 151.2800144 C170.82700823 151.29990549 168.66059887 151.28418348 166.49241638 151.26843262 C164.93480406 151.2752106 163.37719975 151.28411475 161.8196106 151.29498291 C157.59176319 151.31777502 153.36452603 151.30893705 149.13666797 151.29308748 C144.70331878 151.28041217 140.27002121 151.29217458 135.83666992 151.30001831 C128.38425855 151.30911679 120.93209483 151.29712879 113.47972107 151.27331543 C104.88695323 151.24617352 96.29477991 151.25486674 87.70202678 151.28244746 C80.31066537 151.30521559 72.91948194 151.30829904 65.52809674 151.29525411 C61.12009753 151.28749275 56.71237656 151.28632455 52.30439568 151.30293655 C48.15170789 151.3174921 43.9997768 151.30715999 39.84716988 151.27846527 C38.3315773 151.27191007 36.81591994 151.27365557 35.300354 151.28477859 C21.67405924 151.3754811 10.58787863 148.21350362 0.55711365 138.62145996 C-8.51483426 128.69711426 -11.74042119 117.04874404 -11.74928284 103.90026855 C-11.75760635 102.84413864 -11.76592987 101.78800873 -11.77450562 100.69987488 C-11.79852169 97.22317786 -11.80736523 93.74666851 -11.8139801 90.26989746 C-11.82294903 87.84807276 -11.83207092 85.42624862 -11.84133911 83.00442505 C-11.85780613 77.9356756 -11.86552574 72.86699206 -11.86842346 67.79821777 C-11.87382125 61.30019353 -11.91156949 54.80278678 -11.95716763 48.30493736 C-11.98688172 43.30697349 -11.99414571 38.30915981 -11.99514961 33.31111526 C-11.99935896 30.91488424 -12.01182169 28.51865305 -12.03266716 26.122509 C-12.059478 22.77582671 -12.05478713 19.43059661 -12.04225159 16.0838623 C-12.05708588 15.0936055 -12.07192017 14.10334869 -12.08720398 13.08308411 C-12.07744034 12.16918411 -12.0676767 11.25528412 -12.05761719 10.31369019 C-12.05962852 9.5235874 -12.06163984 8.73348461 -12.06371212 7.91943932 C-10.38233828 1.69585361 -5.93669401 -0.00374265 0 0 Z " fill="#FEFEFE" transform="translate(128.44288635253906,180.3785400390625)"/>
<path d="M0 0 C2.03847132 3.38022743 2.25114607 5.97260256 2.25396729 9.8896637 C2.25960693 11.0940509 2.26524658 12.29843811 2.27105713 13.5393219 C2.26700867 14.85738327 2.26296021 16.17544464 2.25878906 17.53344727 C2.26149962 18.93802064 2.26506092 20.3425926 2.26940918 21.74716187 C2.27852689 25.55902379 2.27499171 29.37077745 2.26865101 33.18264127 C2.26358882 37.1704241 2.26828298 41.15819764 2.27142334 45.14598083 C2.27506192 51.84172226 2.27026628 58.53741957 2.26074219 65.2331543 C2.24985339 72.97783362 2.25338671 80.72240768 2.264395 88.46708447 C2.27346565 95.11429991 2.27475438 101.76148364 2.26951766 108.40870327 C2.26639731 112.37983771 2.26599049 116.35092264 2.27259064 120.32205391 C2.27836041 124.0542342 2.27437405 127.78627849 2.26280212 131.51844406 C2.26015374 132.8894713 2.26092367 134.26050995 2.26532745 135.63153267 C2.27077692 137.50012432 2.2627376 139.36874093 2.25396729 141.23731995 C2.25321323 142.28389047 2.25245918 143.33046099 2.25168228 144.40874577 C2 147 2 147 0 150 C-6.78690941 149.73965559 -10.50039445 146.9167768 -15.75 142.8125 C-17.44115694 141.52831744 -19.13257041 140.24447267 -20.82421875 138.9609375 C-21.68321777 138.3019043 -22.5422168 137.64287109 -23.42724609 136.96386719 C-27.43518525 133.90447617 -31.49832906 130.92154016 -35.5625 127.9375 C-36.33843506 127.36572021 -37.11437012 126.79394043 -37.91381836 126.20483398 C-43.5283904 122.06952945 -49.16294491 117.96236971 -54.8125 113.875 C-55.54734619 113.34253662 -56.28219238 112.81007324 -57.03930664 112.26147461 C-57.73403076 111.76010986 -58.42875488 111.25874512 -59.14453125 110.7421875 C-59.74628174 110.3076123 -60.34803223 109.87303711 -60.96801758 109.42529297 C-63.09428583 107.83291982 -63.09428583 107.83291982 -66.18237305 106.61474609 C-69.47663563 103.55768411 -69.48610482 102.7644718 -69.83984375 98.44042969 C-69.90659276 96.10163732 -69.93671526 93.76161955 -69.9375 91.421875 C-69.95272705 90.18133362 -69.9679541 88.94079224 -69.98364258 87.66265869 C-70.01079495 84.36411147 -70.00645713 81.06718376 -69.99487305 77.76861572 C-69.99998276 75.75678932 -70.03616641 73.74805214 -70.08398438 71.73681641 C-70.16988084 67.85954558 -70.18775109 63.98749578 -70.1875 60.109375 C-70.22029053 58.91640808 -70.25308105 57.72344116 -70.28686523 56.49432373 C-70.2053627 51.55592279 -70.14305812 48.30816767 -66.81236267 44.49636841 C-64.29211976 42.4611408 -61.7527026 40.70278277 -59 39 C-57.87013765 38.18293653 -56.74542112 37.35864777 -55.62890625 36.5234375 C-54.61699219 35.81445312 -53.60507812 35.10546875 -52.5625 34.375 C-46.90570524 30.3822009 -41.31653497 26.3051178 -35.75 22.1875 C-29.19158482 17.34012053 -22.611578 12.52465543 -16 7.75 C-15.24041992 7.20110107 -14.48083984 6.65220215 -13.69824219 6.08666992 C-4.88927518 -0.26428514 -4.88927518 -0.26428514 0 0 Z " fill="#FCFDFE" transform="translate(393,181)"/>
</svg>
